<?xml version="1.0" encoding="utf-8"?>
<!-- Generator: Adobe Illustrator 24.3.0, SVG Export Plug-In . SVG Version: 6.00 Build 0)  -->
<svg version="1.1" id="Layer_1" xmlns="http://www.w3.org/2000/svg" xmlns:xlink="http://www.w3.org/1999/xlink" x="0px" y="0px"
	 viewBox="0 0 900 110" style="enable-background:new 0 0 900 110;" xml:space="preserve">
<style type="text/css">
	.st0{fill:#1EA0A0;}
</style>
<g>
	<g>
		<path class="st0" d="M1,67.5V2.1h11v55h29.9v10.5H1z"/>
		<path class="st0" d="M78.9,2.1h11v65.4h-11V2.1z"/>
		<path class="st0" d="M179.8,35.7h11V58c-6.2,6.8-15,10.2-26.5,10.2c-9.7,0-17.8-3.2-24.3-9.5c-6.5-6.4-9.8-14.4-9.8-24.2
			c0-9.7,3.3-17.8,10-24.3c6.6-6.5,14.7-9.7,24.1-9.7c9.4,0,17.3,2.7,23.5,8.2l-5.9,8.4c-2.6-2.2-5.1-3.7-7.7-4.5
			c-2.6-0.8-5.6-1.3-9-1.3c-6.6,0-12.2,2.1-16.7,6.4c-4.5,4.3-6.7,9.9-6.7,16.9c0,7,2.2,12.5,6.6,16.8c4.4,4.2,9.7,6.3,15.9,6.3
			c6.2,0,11.4-1.3,15.6-4V35.7z"/>
		<path class="st0" d="M232.1,67.5V2.1h11v28.4h32.5V2.1h11v65.4h-11V40.7h-32.5v26.8H232.1z"/>
		<path class="st0" d="M354.5,12.2v55.3h-11V12.2h-19.8V2.1h50.7v10.1H354.5z"/>
		<path class="st0" d="M492.9,12.2v55.3h-11V12.2H462V2.1h50.7v10.1H492.9z"/>
		<path class="st0" d="M602.8,58.5c-6.6,6.5-14.8,9.7-24.5,9.7s-17.9-3.2-24.5-9.7c-6.6-6.5-9.9-14.5-9.9-24.2s3.3-17.7,9.9-24.2
			c6.6-6.5,14.8-9.7,24.5-9.7s17.9,3.2,24.5,9.7c6.6,6.5,9.9,14.5,9.9,24.2S609.4,52,602.8,58.5z M594.7,17.5
			c-4.5-4.6-9.9-6.9-16.4-6.9c-6.5,0-12,2.3-16.4,6.9c-4.5,4.6-6.7,10.2-6.7,16.8c0,6.6,2.2,12.2,6.7,16.8c4.5,4.6,9.9,6.9,16.4,6.9
			c6.5,0,12-2.3,16.4-6.9c4.5-4.6,6.7-10.2,6.7-16.8C601.4,27.7,599.2,22.1,594.7,17.5z"/>
		<path class="st0" d="M667.4,52.5c3,3.5,7.1,5.2,12.2,5.2c5.1,0,9.2-1.7,12.2-5.2c3-3.5,4.5-8.2,4.5-14.2V2.1h11v36.7
			c0,9.4-2.6,16.7-7.8,21.8c-5.2,5.1-11.8,7.6-19.9,7.6c-8.1,0-14.8-2.5-19.9-7.6c-5.2-5.1-7.8-12.3-7.8-21.8V2.1h11v36.2
			C662.9,44.3,664.4,49,667.4,52.5z"/>
		<path class="st0" d="M780.4,57.5c3.8,0,7.1-0.6,9.8-1.9c2.7-1.3,5.6-3.3,8.6-6.1l7.1,7.3c-6.9,7.7-15.3,11.5-25.2,11.5
			s-18.1-3.2-24.6-9.5c-6.5-6.4-9.8-14.4-9.8-24.2c0-9.7,3.3-17.8,10-24.3c6.6-6.5,15-9.7,25.2-9.7c10.1,0,18.6,3.7,25.4,11.2
			l-7,7.7c-3.1-3-6.1-5.1-8.8-6.3c-2.8-1.2-6-1.8-9.8-1.8c-6.6,0-12.2,2.1-16.7,6.4c-4.5,4.3-6.7,9.7-6.7,16.4
			c0,6.6,2.2,12.2,6.7,16.7C769,55.2,774.3,57.5,780.4,57.5z"/>
		<path class="st0" d="M844.4,67.5V2.1h11v28.4H888V2.1h11v65.4h-11V40.7h-32.5v26.8H844.4z"/>
	</g>
	<g>
		<path class="st0" d="M209.7,96.9c1.4,1.2,2.1,3,2.1,5.2c0,2.2-0.7,4-2,5.3c-1.3,1.3-3.4,1.9-6.1,1.9h-4.8V95.1h4.9
			C206.3,95.1,208.3,95.7,209.7,96.9z M209.3,102.2c0-3.3-1.9-4.9-5.6-4.9h-2.4v9.8h2.7c1.7,0,3.1-0.4,4-1.2
			C208.8,105,209.3,103.8,209.3,102.2z"/>
		<path class="st0" d="M222.4,106.1l-1.4,3.3h-2.6l6.3-14.3h2.6l6.3,14.3H231l-1.4-3.3H222.4z M228.5,103.9l-2.6-5.9l-2.6,5.9H228.5
			z"/>
		<path class="st0" d="M244.2,106.1c0.7,0.8,1.5,1.1,2.7,1.1c1.1,0,2-0.4,2.7-1.1c0.7-0.8,1-1.8,1-3.1v-7.9h2.4v8
			c0,2.1-0.6,3.6-1.7,4.8c-1.1,1.1-2.6,1.7-4.4,1.7c-1.8,0-3.2-0.6-4.4-1.7c-1.1-1.1-1.7-2.7-1.7-4.8v-8h2.4v7.9
			C243.2,104.3,243.6,105.3,244.2,106.1z"/>
		<path class="st0" d="M272.8,95.1v2.3h-7.6v3.8h6.9v2.2h-6.9v3.8h7.9v2.3h-10.3V95.1H272.8z"/>
		<path class="st0" d="M293.7,99.7c0,2.4-1,3.8-3.1,4.5l3.7,5.2h-3.1l-3.4-4.8h-3.2v4.8h-2.4V95.1h5.3c2.2,0,3.7,0.4,4.7,1.1
			C293.3,96.9,293.7,98.1,293.7,99.7z M290.5,101.7c0.5-0.4,0.7-1.1,0.7-2c0-0.9-0.3-1.6-0.8-1.9s-1.4-0.5-2.7-0.5h-3.1v5.1h3
			C289.1,102.4,290,102.2,290.5,101.7z"/>
		<path class="st0" d="M303.2,109.4V95.1h2.4v6.2h7.1v-6.2h2.4v14.3h-2.4v-5.9h-7.1v5.9H303.2z"/>
		<path class="st0" d="M327.2,106.1l-1.4,3.3h-2.6l6.3-14.3h2.6l6.3,14.3h-2.6l-1.4-3.3H327.2z M333.4,103.9l-2.6-5.9l-2.6,5.9
			H333.4z"/>
		<path class="st0" d="M349,97.3v3.9h6.3v2.2H349v5.9h-2.4V95.1h9.5l0,2.3H349z"/>
		<path class="st0" d="M370.7,97.3v12.1h-2.4V97.3H364v-2.2h11.1v2.2H370.7z"/>
		<path class="st0" d="M393.6,95.1v2.3H386v3.8h6.9v2.2H386v3.8h7.9v2.3h-10.3V95.1H393.6z"/>
		<path class="st0" d="M414.8,109.4V95.1h2.4v6.2h7.1v-6.2h2.4v14.3h-2.4v-5.9h-7.1v5.9H414.8z"/>
		<path class="st0" d="M438.9,106.1l-1.4,3.3h-2.6l6.3-14.3h2.6l6.3,14.3h-2.6l-1.4-3.3H438.9z M445.1,103.9l-2.6-5.9l-2.6,5.9
			H445.1z"/>
		<path class="st0" d="M461.3,106.1l-1.4,3.3h-2.6l6.3-14.3h2.6l6.3,14.3h-2.6l-1.4-3.3H461.3z M467.5,103.9l-2.6-5.9l-2.6,5.9
			H467.5z"/>
		<path class="st0" d="M492,99.7c0,2.4-1,3.8-3.1,4.5l3.7,5.2h-3.1l-3.4-4.8H483v4.8h-2.4V95.1h5.3c2.2,0,3.7,0.4,4.7,1.1
			C491.5,96.9,492,98.1,492,99.7z M488.8,101.7c0.5-0.4,0.7-1.1,0.7-2c0-0.9-0.3-1.6-0.8-1.9c-0.5-0.3-1.4-0.5-2.7-0.5H483v5.1h3
			C487.4,102.4,488.3,102.2,488.8,101.7z"/>
		<path class="st0" d="M511.5,95.1v2.3h-7.6v3.8h6.9v2.2h-6.9v3.8h7.9v2.3h-10.3V95.1H511.5z"/>
		<path class="st0" d="M531.7,95.1h2.4v14.3h-2.6l-8.1-10.4v10.4H521V95.1h2.4l8.3,10.7V95.1z"/>
		<path class="st0" d="M549.3,97.3v12.1h-2.4V97.3h-4.3v-2.2h11.1v2.2H549.3z"/>
		<path class="st0" d="M564.5,97.3v3.9h6.3v2.2h-6.3v5.9h-2.4V95.1h9.5l0,2.3H564.5z"/>
		<path class="st0" d="M590.4,95.1v2.3h-7.6v3.8h6.9v2.2h-6.9v3.8h7.9v2.3h-10.3V95.1H590.4z"/>
		<path class="st0" d="M611.3,99.7c0,2.4-1,3.8-3.1,4.5l3.7,5.2h-3.1l-3.4-4.8h-3.2v4.8h-2.4V95.1h5.3c2.2,0,3.7,0.4,4.7,1.1
			C610.8,96.9,611.3,98.1,611.3,99.7z M608,101.7c0.5-0.4,0.7-1.1,0.7-2c0-0.9-0.3-1.6-0.8-1.9s-1.4-0.5-2.7-0.5h-3.1v5.1h3
			C606.6,102.4,607.6,102.2,608,101.7z"/>
		<path class="st0" d="M631.4,95.1h2.4v14.3h-2.6l-8.1-10.4v10.4h-2.4V95.1h2.4l8.3,10.7V95.1z"/>
		<path class="st0" d="M647.1,106.1c0.7,0.8,1.5,1.1,2.7,1.1c1.1,0,2-0.4,2.7-1.1c0.7-0.8,1-1.8,1-3.1v-7.9h2.4v8
			c0,2.1-0.6,3.6-1.7,4.8c-1.1,1.1-2.6,1.7-4.4,1.7s-3.2-0.6-4.4-1.7c-1.1-1.1-1.7-2.7-1.7-4.8v-8h2.4v7.9
			C646.1,104.3,646.4,105.3,647.1,106.1z"/>
		<path class="st0" d="M676.4,95.1h2.4v14.3h-2.6l-8.1-10.4v10.4h-2.4V95.1h2.4l8.3,10.7V95.1z"/>
		<path class="st0" d="M698.8,102.4h2.4v4.9c-1.4,1.5-3.3,2.2-5.8,2.2c-2.1,0-3.9-0.7-5.3-2.1c-1.4-1.4-2.1-3.2-2.1-5.3
			c0-2.1,0.7-3.9,2.2-5.3c1.5-1.4,3.2-2.1,5.3-2.1c2.1,0,3.8,0.6,5.1,1.8l-1.3,1.8c-0.6-0.5-1.1-0.8-1.7-1c-0.6-0.2-1.2-0.3-2-0.3
			c-1.4,0-2.7,0.5-3.6,1.4s-1.5,2.2-1.5,3.7c0,1.5,0.5,2.7,1.4,3.7c1,0.9,2.1,1.4,3.5,1.4c1.4,0,2.5-0.3,3.4-0.9V102.4z"/>
	</g>
</g>
</svg>
