<?xml version="1.0" encoding="utf-8"?>
<!-- Generator: Adobe Illustrator 24.3.0, SVG Export Plug-In . SVG Version: 6.00 Build 0)  -->
<svg version="1.1" id="Layer_1" xmlns="http://www.w3.org/2000/svg" xmlns:xlink="http://www.w3.org/1999/xlink" x="0px" y="0px"
	 viewBox="0 0 900 70" style="enable-background:new 0 0 900 70;" xml:space="preserve">
<style type="text/css">
	.st0{fill:#1EA0A0;}
</style>
<g>
	<path class="st0" d="M1,68.1V2.7h11v55h29.9v10.5H1z"/>
	<path class="st0" d="M78.9,2.7h11v65.4h-11V2.7z"/>
	<path class="st0" d="M179.8,36.3h11v22.4c-6.2,6.8-15,10.2-26.5,10.2c-9.7,0-17.8-3.2-24.3-9.5c-6.5-6.4-9.8-14.4-9.8-24.2
		c0-9.7,3.3-17.8,10-24.3c6.6-6.5,14.7-9.7,24.1-9.7c9.4,0,17.3,2.7,23.5,8.2l-5.9,8.4c-2.6-2.2-5.1-3.7-7.7-4.5
		c-2.6-0.8-5.6-1.3-9-1.3c-6.6,0-12.2,2.1-16.7,6.4c-4.5,4.3-6.7,9.9-6.7,16.9c0,7,2.2,12.5,6.6,16.8c4.4,4.2,9.7,6.3,15.9,6.3
		c6.2,0,11.4-1.3,15.6-4V36.3z"/>
	<path class="st0" d="M232.1,68.1V2.7h11v28.4h32.5V2.7h11v65.4h-11V41.4h-32.5v26.8H232.1z"/>
	<path class="st0" d="M354.5,12.8v55.3h-11V12.8h-19.8V2.7h50.7v10.1H354.5z"/>
	<path class="st0" d="M492.9,12.8v55.3h-11V12.8H462V2.7h50.7v10.1H492.9z"/>
	<path class="st0" d="M602.8,59.1c-6.6,6.5-14.8,9.7-24.5,9.7s-17.9-3.2-24.5-9.7c-6.6-6.5-9.9-14.5-9.9-24.2s3.3-17.7,9.9-24.2
		c6.6-6.5,14.8-9.7,24.5-9.7s17.9,3.2,24.5,9.7c6.6,6.5,9.9,14.5,9.9,24.2S609.4,52.6,602.8,59.1z M594.7,18.1
		c-4.5-4.6-9.9-6.9-16.4-6.9c-6.5,0-12,2.3-16.4,6.9c-4.5,4.6-6.7,10.2-6.7,16.8c0,6.6,2.2,12.2,6.7,16.8c4.5,4.6,9.9,6.9,16.4,6.9
		c6.5,0,12-2.3,16.4-6.9c4.5-4.6,6.7-10.2,6.7-16.8C601.4,28.4,599.2,22.8,594.7,18.1z"/>
	<path class="st0" d="M667.4,53.2c3,3.5,7.1,5.2,12.2,5.2c5.1,0,9.2-1.7,12.2-5.2c3-3.5,4.5-8.2,4.5-14.2V2.7h11v36.7
		c0,9.4-2.6,16.7-7.8,21.8c-5.2,5.1-11.8,7.6-19.9,7.6c-8.1,0-14.8-2.5-19.9-7.6c-5.2-5.1-7.8-12.3-7.8-21.8V2.7h11v36.2
		C662.9,44.9,664.4,49.7,667.4,53.2z"/>
	<path class="st0" d="M780.4,58.1c3.8,0,7.1-0.6,9.8-1.9c2.7-1.3,5.6-3.3,8.6-6.1l7.1,7.3c-6.9,7.7-15.3,11.5-25.2,11.5
		s-18.1-3.2-24.6-9.5c-6.5-6.4-9.8-14.4-9.8-24.2c0-9.7,3.3-17.8,10-24.3c6.6-6.5,15-9.7,25.2-9.7c10.1,0,18.6,3.7,25.4,11.2l-7,7.7
		c-3.1-3-6.1-5.1-8.8-6.3c-2.8-1.2-6-1.8-9.8-1.8c-6.6,0-12.2,2.1-16.7,6.4c-4.5,4.3-6.7,9.7-6.7,16.4c0,6.6,2.2,12.2,6.7,16.7
		C769,55.9,774.3,58.1,780.4,58.1z"/>
	<path class="st0" d="M844.4,68.1V2.7h11v28.4H888V2.7h11v65.4h-11V41.4h-32.5v26.8H844.4z"/>
</g>
</svg>
